<svg xmlns="http://www.w3.org/2000/svg" xmlns:xlink="http://www.w3.org/1999/xlink" version="1.1" x="0px" y="0px" viewBox="0 0 100 100" style="enable-background:new 0 0 100 100;" xml:space="preserve"><g><circle fill="salmon" cx="50" cy="29.4" r="8.8"/><path d="M62.6,29l1-1c1.1-1.1,2.6-1.7,4.2-1.7c1.6,0,3.1,0.6,4.2,1.7c0.5,0.5,0.9,1.1,1.2,1.7c2.3-1.6,3.9-4.3,3.9-7.3   c0-4.8-3.9-8.8-8.8-8.8c-4.8,0-8.8,3.9-8.8,8.8C59.6,25,60.8,27.4,62.6,29z"/><path d="M26.8,29.6c0.3-0.7,0.7-1.3,1.3-1.8c1.1-1,2.5-1.6,4-1.6c1.6,0,3.1,0.6,4.3,1.8l1,1c1.9-1.6,3.1-4,3.1-6.7   c0-4.8-3.9-8.8-8.8-8.8c-4.8,0-8.8,3.9-8.8,8.8C22.9,25.4,24.4,28.1,26.8,29.6z"/><path d="M38.9,47.4l-11-11c-1.1-1.1-1.8-2.7-1.7-4.3c0,0,0,0,0,0c-0.3-0.2-0.5-0.4-0.8-0.7l-8.9-8.9c-1.5-1.5-3.9-1.6-5.4-0.1   c-1.6,1.5-1.6,3.9-0.1,5.5l11.8,11.8L18.2,64h4.6v11.5c0,2.1,1.8,3.9,3.9,3.9c2.1,0,3.8-1.7,3.8-3.8V64h2.1v11.5   c0,2.1,1.8,3.9,3.9,3.9c0.9,0,1.8-0.3,2.4-0.9v-5.3h-5L38.9,47.4z"/><path d="M88.9,22.4c-1.5-1.5-3.9-1.5-5.4,0l-9,9c-0.2,0.2-0.5,0.5-0.8,0.7c0,1.6-0.5,3.1-1.7,4.3l-11,11l5,25.8h-5.1v5.3   c0.7,0.6,1.5,0.9,2.5,0.9c2.1,0,3.8-1.7,3.8-3.8V64h2.1v11.5c0,2.1,1.8,3.9,3.9,3.9c2.1,0,3.8-1.7,3.8-3.8V64h4.7l-4.7-24.4   l11.8-11.8C90.4,26.3,90.4,23.9,88.9,22.4z"/><path fill="salmon" d="M58.8,46.6l11.8-11.8c1.5-1.5,1.5-3.9,0-5.4c-1.5-1.5-3.9-1.5-5.4,0l-9,9c-3.4,3.4-9,3.4-12.4,0l-8.9-8.9   C33.4,28,31,28,29.5,29.4c-1.6,1.5-1.6,3.9-0.1,5.5l11.8,11.8l-4.7,24.4h4.5v11.5c0,2.1,1.9,3.9,4,3.9c2.1,0,3.9-1.7,3.9-3.8V71.1   h2v11.5c0,2.1,1.9,3.9,4,3.9c2.1,0,3.9-1.7,3.9-3.8V71.1h4.7L58.8,46.6z"/></g></svg>