<svg xmlns="http://www.w3.org/2000/svg" data-name="Layer 1" viewBox="0 0 128 128" x="0px" y="0px"><title>Artboard 69</title><rect fill="salmon" x="52" y="64" width="8" height="8"/><rect fill="salmon" x="52" y="48" width="8" height="8"/><path fill="salmon" d="M64,0A52,52,0,0,0,46,100.8l14.68,25.27a4,4,0,0,0,6.64,0L82,100.8A52,52,0,0,0,64,0ZM92,80H36a4,4,0,0,1,0-8h8V44a4,4,0,0,1,4-4H80a4,4,0,0,1,4,4V72h8a4,4,0,0,1,0,8Zm7.76-43.15a4,4,0,0,1-5.12,2.41L64,28.25l-30.65,11a4,4,0,0,1-2.71-7.53L64,19.75l33.35,12A4,4,0,0,1,99.76,36.85Z"/><rect fill="salmon" x="68" y="64" width="8" height="8"/><rect fill="salmon" x="68" y="48" width="8" height="8"/></svg>