<?xml version="1.0" encoding="utf-8"?>
<!-- Generator: Adobe Illustrator 22.1.0, SVG Export Plug-In . SVG Version: 6.00 Build 0)  -->
<svg version="1.1" id="Layer_1" xmlns="http://www.w3.org/2000/svg" xmlns:xlink="http://www.w3.org/1999/xlink" x="0px" y="0px"
	 viewBox="0 0 305.7 168.4" style="enable-background:new 0 0 305.7 168.4;" xml:space="preserve">
<style type="text/css">
	.st0{fill:#088543;}
	.st1{fill:#A5CE3A;}
	.st2{opacity:0.3;fill:#0DB259;enable-background:new    ;}
	.st3{opacity:0.5;fill:#FFFFFF;enable-background:new    ;}
	.st4{opacity:0.4;fill:#FFFFFF;enable-background:new    ;}
	.st5{fill:#0EA94E;}
	.st6{fill:#4AB749;}
	.st7{fill:#6F3A24;}
	.st8{fill:#BC905C;}
	.st9{fill:url(#SVGID_1_);}
	.st10{clip-path:url(#SVGID_3_);}
	.st11{opacity:0.3;fill:#D7A457;enable-background:new    ;}
	.st12{opacity:0.3;fill:#BC905C;enable-background:new    ;}
	.st13{opacity:0.4;fill:#C7813E;enable-background:new    ;}
	.st14{opacity:0.3;fill:#C7813E;enable-background:new    ;}
	.st15{opacity:0.5;fill:#D7A457;enable-background:new    ;}
	.st16{opacity:0.4;fill:#D7A457;enable-background:new    ;}
	.st17{fill:#D7A457;}
	.st18{opacity:0.5;fill:#C7813E;enable-background:new    ;}
	.st19{opacity:0.5;fill:#BC905C;enable-background:new    ;}
	.st20{opacity:0.3;}
	.st21{fill:#FFFFFF;}
</style>
<title>Asset 2</title>
<g>
	<g id="Layer_2_1_">
		<g id="Layer_1-2">
			<path class="st0" d="M301.3,47.3c-5.8,0.9-11.6,1.4-17.4,1.3c-8.2-0.1-21.5,3.2-28.2,16.6s-6.4,19.4-8.2,21.5
				c2.1,1.1,4.2,2.1,6.4,3c5.7,1.7,20,3,29.6-5.8C293.7,74.4,300.1,61.3,301.3,47.3z"/>
			<path class="st1" d="M291.9,69.9c-7.6,1-15.1-3.6-15.1-3.6c0.5-0.3,0.9-0.6,1.4-0.9c8.6-5.4,23.1-18.2,23.1-18.2
				s-16.7,13.7-23,16.5c0,0-0.8-9.6,4.2-13.9c0,0-6,3.8-5.5,14.5c-2.2,1.2-5.6,3.5-9.2,6.1c0,0-1.4-11.1,2-17.9
				c0,0-4.4,7.5-3.1,18.6l0.1-0.1c-3,2.1-6.1,4.4-8.8,6.4l0.5-0.3c0,0-1.6-7.8,0.6-14.5c-1.9,4.9-2.5,10.1-1.7,15.3l0.6-0.4
				c-5.3,3.9-9.4,7.1-9.4,7.1l-1,2c2.6-1.3,9.7-6.5,16.9-11.7c12.7,8.8,19.9,5.1,19.9,5.1c-8.2,1.8-17.8-5-18.9-5.8
				c3.8-2.8,7.6-5.5,10.7-7.5C280.7,69.9,286.4,71,291.9,69.9z"/>
			<path class="st2" d="M283.9,75.8c-11.6,9.7-21.8,6.9-27.4,7.1c-3.7,0.1-6.4,2.6-8.9,4c2,1.1,4.1,2.1,6.3,2.9
				c5.7,1.7,20,3,29.6-5.8c8.2-7.6,13.9-17.5,16.5-28.5l1.3-8.2C301.3,47.3,295.5,66,283.9,75.8z"/>
			<path class="st3" d="M298.3,57.7c0,0-4.6,22.3-24.3,29.9c-8.6,3.2-18.1,2.7-26.2-1.4C247.8,86.1,280,98.7,298.3,57.7z"/>
			<path class="st4" d="M251.3,79.8c0,0,2.6-17.2,15.9-25.5c6.7-4,14.7-5.4,22.4-3.8C289.6,50.6,262.3,47.6,251.3,79.8z"/>
			<path class="st5" d="M277.6,32.7c-4.5,2.9-9.1,5.5-14,7.7c-6.9,3-16.7,10.8-17.2,24.6s2,18.6,1.3,21c2.2,0.1,4.3,0.1,6.5,0
				c5.4-0.7,17.8-5.1,22.5-16C281.6,58.1,281.9,44.8,277.6,32.7z"/>
			<path class="st5" d="M276.4,28.2c-4.5,2.9-9.1,5.5-14,7.7c-6.9,3-16.7,10.8-17.2,24.6s2,18.6,1.3,21c2.2,0.1,4.3,0.1,6.5,0
				c5.4-0.7,17.8-5.1,22.5-16C280.4,53.6,280.7,40.4,276.4,28.2z"/>
			<path class="st1" d="M277.1,50.7c-6,3.7-13.9,2.7-14,2.7c0.3-0.4,0.5-0.9,0.8-1.2c5.1-7.7,12.4-23.9,12.4-23.9s-8.7,17.7-13,22.5
				c0,0-4.3-7.7-1.7-13.2c0,0-3.5,5.5,0.9,14.2c-1.4,1.9-3.3,5-5.4,8.5c0,0-5.3-8.7-5.1-15.7c-0.2,5.9,1.3,11.7,4.5,16.7v-0.1
				c-1.7,2.9-3.4,5.9-4.9,8.7l0.3-0.4c0,0-4.3-5.9-5-12.3c0.3,4.8,1.8,9.4,4.4,13.4l0.3-0.6c-2.9,5.3-5.2,9.5-5.2,9.5l-0.1,2
				c1.7-2.1,5.6-9.1,9.6-16.1c13.9,2.5,18.5-3.3,18.5-3.3c-6.1,4.7-16.7,2.6-17.9,2.3c2.1-3.8,4.3-7.5,6.1-10.3
				C267.7,54.9,272.9,53.6,277.1,50.7z"/>
			<path class="st2" d="M272.7,58.5c-6,12.5-15.6,14-20.1,16.3c-3,1.5-4.4,4.6-5.9,6.7c2.1,0.1,4.2,0.1,6.4,0
				c5.4-0.7,17.8-5.1,22.5-16c4-9.5,5-19.9,3-30l-2-7.4C276.4,28.2,278.7,46,272.7,58.5z"/>
			<path class="st3" d="M277.9,38c0,0,4.6,20.4-9,34.2c-5.9,5.9-14,9.1-22.4,8.7C246.5,80.9,278.1,79.1,277.9,38z"/>
			<path class="st4" d="M247,74.3c0,0-4.3-15.3,3.6-27.3c4.1-5.9,10.3-10.1,17.3-11.7C267.9,35.3,244,43.3,247,74.3z"/>
			<path class="st5" d="M290.1,96.5c-3.8-3.8-7.2-7.9-10.3-12.2c-4.3-6.2-13.9-14.3-27.5-12s-17.9,5.6-20.4,5.4
				c0.3,2.1,0.7,4.3,1.3,6.4c1.8,5.1,8.5,16.4,20.2,18.9C265.9,105.5,279,103.2,290.1,96.5z"/>
			<path class="st6" d="M293.9,102.2c-3.5-4-6.6-8.4-9.4-12.9c-3.9-6.5-12.9-15.2-26.5-14s-18.2,4.3-20.7,3.9
				c0.1,2.2,0.4,4.3,0.8,6.5c1.4,5.2,7.3,17,18.8,20.3C269.2,109.3,282.4,108,293.9,102.2z"/>
			<path class="st1" d="M271.8,105.8c-4.4-5.4-4.5-13.5-4.5-13.5l1.3,0.6c8.3,4.1,25.3,9.3,25.3,9.3s-18.7-6.4-24-10
				c0,0,7.1-5.2,12.9-3.4c0,0-5.9-2.8-14,2.7c-2-1.1-5.4-2.7-9.2-4.3c0,0,8-6.4,14.9-7c-5.9,0.5-11.4,2.8-16,6.6h0.1
				c-3.1-1.3-6.3-2.6-9.3-3.8l0.5,0.2c0,0,5.3-5,11.5-6.5c-4.7,0.9-9.1,2.9-12.7,6l0.6,0.3c-5.6-2.2-10.1-3.9-10.1-3.9l-2,0.2
				c2.3,1.4,9.8,4.4,17.2,7.5c-0.7,14.1,5.6,17.9,5.6,17.9c-5.4-5.5-4.7-16.2-4.6-17.5c4,1.7,8,3.3,11,4.7
				C266.4,97,268.3,102,271.8,105.8z"/>
			<path class="st2" d="M263.4,102.4c-13.2-4.4-15.9-13.7-18.8-17.9c-1.9-2.8-5.1-3.8-7.4-5c0.1,2.1,0.4,4.2,0.8,6.3
				c1.4,5.2,7.3,17,18.8,20.3c9.9,2.7,20.4,2.4,30.1-0.9l7-2.9C293.9,102.2,276.6,106.7,263.4,102.4z"/>
			<path class="st3" d="M284.4,104.9c0,0-19.6,7.2-35-4.6c-6.6-5.1-10.8-12.8-11.5-21.1C237.9,79.2,243.7,110.4,284.4,104.9z"/>
			<path class="st4" d="M244.5,78.9c0,0,14.6-6.3,27.5,0.1c6.4,3.3,11.3,8.9,13.8,15.7C285.8,94.7,274.9,72,244.5,78.9z"/>
			<path class="st0" d="M26.9,33.3c5.4,1.9,10.8,3.3,16.4,4.3c7.9,1.3,20,6.8,24.1,20.8s2.8,19.7,4.2,22c-2.2,0.7-4.4,1.3-6.7,1.7
				c-5.7,0.6-19.6-0.6-27.3-10.7C29.4,60.5,25.6,46.9,26.9,33.3z"/>
			<path class="st1" d="M31.9,56.6C39,58.8,47,55.8,47,55.8c-0.4-0.4-0.8-0.7-1.2-1.1c-7.3-6.6-19-21.4-19-21.4s13.6,16,19.2,19.8
				c0,0,2.4-9-1.7-14c0,0,5,4.7,2.8,14.9c1.9,1.6,4.7,4.3,7.8,7.4c0,0,3.2-10.4,1.2-17.5c0,0,2.9,7.9-0.3,18.4l-0.1-0.1
				c2.5,2.5,5,5.2,7.3,7.7l-0.4-0.4c0,0,2.9-7.2,1.9-13.9c1,5,0.6,10.1-1,14.9L63.2,70c4.4,4.7,7.8,8.4,7.8,8.4l0.6,2
				c-2.3-1.7-8.2-7.9-14.1-14.1c-13.7,6.2-19.9,1.4-19.9,1.4c7.5,3.2,17.9-1.7,19.1-2.3c-3.2-3.3-6.4-6.6-8.9-9
				C42.7,58.5,37,58.5,31.9,56.6z"/>
			<path class="st2" d="M38.6,63.5C48,74.9,58.3,74,63.6,75.1c3.5,0.8,5.7,3.6,7.9,5.3c-2.1,0.7-4.3,1.2-6.5,1.7
				c-5.7,0.6-19.6-0.6-27.3-10.7C31,62.8,27.3,52.3,26.7,41.4l0.2-8.1C26.9,33.3,29.1,52.2,38.6,63.5z"/>
			<path class="st3" d="M27.9,43.8c0,0,0.5,22.2,18.1,32.9c7.6,4.6,16.8,5.7,25.3,3.2C71.3,79.8,38.3,86.2,27.9,43.8z"/>
			<path class="st4" d="M69.1,73.1c0,0,0.5-16.9-10.8-27.1c-5.8-5-13.2-7.7-20.8-7.5C37.4,38.5,64.1,40.4,69.1,73.1z"/>
			<path class="st5" d="M52.1,23.4c3.8,3.6,7.8,6.9,12.1,9.8c6.1,4.1,14.2,13.3,12.2,26.5s-5.1,17.5-4.9,19.9
				c-2.1-0.2-4.2-0.6-6.2-1.1c-5-1.6-16.1-8-18.8-19.3C43.9,47.1,45.8,34.3,52.1,23.4z"/>
			<path class="st5" d="M54,19.4c3.8,3.6,7.8,6.9,12.1,9.8c6.1,4.1,14.1,13.3,12.2,26.5s-5.1,17.5-4.8,19.9
				c-2.1-0.2-4.2-0.6-6.2-1.1c-5-1.6-16.1-8-18.8-19.3C45.8,43,47.8,30.2,54,19.4z"/>
			<path class="st1" d="M49.4,40.7c5.1,4.5,12.9,5,12.9,5c-0.2-0.5-0.4-0.9-0.5-1.3c-3.6-8.3-7.7-25-7.7-25s5.3,18.5,8.5,23.8
				c0,0,5.4-6.6,3.9-12.3c0,0,2.4,5.8-3.3,13.5c1,2,2.3,5.4,3.7,9.1c0,0,6.6-7.4,7.6-14.1c-0.8,5.7-3.3,11-7.2,15.2v-0.1
				c1.1,3,2.2,6.3,3.2,9.2l-0.2-0.5c0,0,5.1-4.9,6.9-10.9c-1.1,4.5-3.3,8.7-6.5,12.1l-0.2-0.6c1.9,5.6,3.3,10,3.3,10l-0.3,1.9
				c-1.3-2.3-3.8-9.7-6.4-17.1c-13.8,0-17.1-6.3-17.1-6.3c5.1,5.5,15.5,5.3,16.8,5.3c-1.4-4-2.8-7.9-4-10.9
				C57.7,46.3,52.9,44.3,49.4,40.7z"/>
			<path class="st2" d="M52.3,49c3.6,13,12.5,16.1,16.5,19.1c2.6,1.9,3.4,5.2,4.5,7.4c-2-0.2-4.1-0.6-6.1-1.1
				c-5-1.6-16.1-8-18.8-19.3c-2.1-9.7-1.3-19.9,2.4-29.2l3.2-6.7C54,19.4,48.7,36,52.3,49z"/>
			<path class="st3" d="M50.9,28.5c0,0-8,18.7,2.7,34.3c4.6,6.7,11.9,11.2,19.9,12.3C73.5,75,43.5,67.8,50.9,28.5z"/>
			<path class="st4" d="M74.1,68.5c0,0,6.9-13.9,1.3-26.7c-2.9-6.4-8.1-11.4-14.5-14.2C60.9,27.6,82.4,39.4,74.1,68.5z"/>
			<path class="st5" d="M28,90c4-3.3,7.8-6.8,11.3-10.7c4.9-5.5,15-12.3,27.9-8.6s16.7,7.4,19.1,7.4c-0.5,2-1.2,4-1.9,6
				c-2.3,4.7-10,14.9-21.6,16C50.4,101.2,38,97.6,28,90z"/>
			<path class="st6" d="M24.4,87.1c4-3.3,7.8-6.9,11.3-10.7c4.8-5.5,15-12.3,27.9-8.8S80.2,75,82.6,75c-0.5,2-1.1,4-1.9,6
				c-2.3,4.8-9.9,15-21.5,16.1C46.8,98.2,34.4,94.7,24.4,87.1z"/>
			<path class="st1" d="M45,94.4c5.1-4.4,6.6-12.1,6.6-12.2c-0.5,0.1-1,0.3-1.4,0.4c-8.7,2.5-25.8,4.5-25.8,4.5s19-2.9,24.7-5.4
				c0,0-5.9-6.3-11.7-5.5c0,0,6.1-1.7,12.9,5c2.2-0.7,5.6-1.6,9.5-2.5c0,0-6.5-7.5-13-9.3c5.5,1.5,10.5,4.7,14.2,9.1h-0.1
				c3.2-0.7,6.5-1.4,9.5-2l-0.5,0.1c0,0-4.3-5.7-9.9-8.2c4.3,1.7,8.2,4.4,11.1,8l-0.6,0.1c5.7-1.2,10.3-2,10.3-2l1.9,0.5
				c-2.4,1-10.1,2.6-17.8,4.2c-1.8,13.6-8.5,16.2-8.5,16.2c6.1-4.3,7.3-14.7,7.4-16c-4.1,0.9-8.2,1.8-11.3,2.6
				C51.6,86.9,49,91.4,45,94.4z"/>
			<path class="st2" d="M53.6,92.6C67,90.7,71.2,82.3,74.7,78.7c2.3-2.3,5.6-2.7,8-3.6c-0.5,2-1.1,4-1.8,5.9
				c-2.3,4.8-9.9,15-21.5,16.1c-9.9,0.9-19.9-1.2-28.7-6.1l-6.2-4C24.4,87.1,40.2,94.5,53.6,92.6z"/>
			<path class="st3" d="M33,91.4c0,0,17.5,10.3,34.3,1.7c7.2-3.7,12.5-10.4,14.7-18.2C82,74.9,71.1,103.7,33,91.4z"/>
			<path class="st4" d="M75.7,73.4c0,0-12.9-8.6-26.3-4.7c-6.7,2.1-12.4,6.6-15.9,12.6C33.5,81.4,47.8,61.5,75.7,73.4z"/>
			<path class="st0" d="M305.7,86c-5.8,1.6-11.7,2.6-17.7,3.3c-8.5,0.8-21.8,5.6-27.2,20.1s-4.5,20.6-6.2,22.9
				c2.3,0.9,4.6,1.7,6.9,2.4c6,1.1,20.8,0.9,29.8-9.1C300.9,114.6,306,100.5,305.7,86z"/>
			<path class="st1" d="M298.5,110.3c-7.7,1.8-15.9-2.1-15.9-2.1c0.5-0.4,0.9-0.7,1.3-1c8.3-6.5,21.8-21.2,21.8-21.2
				s-15.7,15.8-21.9,19.4c0,0-1.8-9.8,2.9-14.7c0,0-5.7,4.6-4.1,15.5c-2.1,1.5-5.4,4.2-8.8,7.2c0,0-2.6-11.2,0.2-18.6
				c0,0-3.7,8.2-1.2,19.5l0.1-0.1c-2.8,2.5-5.8,5.1-8.4,7.5l0.4-0.4c0,0-2.5-7.9-0.9-14.9c-1.4,5.2-1.5,10.7-0.1,15.9l0.6-0.5
				c-5,4.6-8.9,8.3-8.9,8.3l-0.8,2.1c2.6-1.6,9.3-7.7,16.1-13.8c14,7.7,21,3.1,21,3.1c-8.2,2.8-18.8-3.2-20-4
				c3.6-3.3,7.3-6.4,10.2-8.8C287,111.4,292.9,111.9,298.5,110.3z"/>
			<path class="st2" d="M290.9,117.1c-10.9,11.2-21.7,9.4-27.4,10.3c-3.8,0.5-6.4,3.3-8.8,5c2.2,0.9,4.5,1.7,6.8,2.3
				c6,1.1,20.8,0.9,29.8-9.1c7.6-8.7,12.5-19.5,13.9-31l0.5-8.6C305.7,86,301.8,105.9,290.9,117.1z"/>
			<path class="st3" d="M303.8,97c0,0-2.4,23.4-21.9,33.3c-8.4,4.2-18.3,4.7-27.1,1.3C254.9,131.6,289.3,141.1,303.8,97z"/>
			<path class="st4" d="M257.8,124.7c0,0,0.8-17.9,13.6-27.8c6.5-4.9,14.6-7.1,22.7-6.3C294.1,90.6,265.7,90.5,257.8,124.7z"/>
			<path class="st5" d="M279.8,73.6c-4.3,3.5-8.8,6.7-13.5,9.4c-6.8,3.8-16.1,12.9-15.1,27.1s4,18.9,3.5,21.5
				c2.2-0.1,4.5-0.3,6.7-0.6c5.4-1.3,17.7-7.1,21.4-18.9C286.6,99.3,285.6,85.6,279.8,73.6z"/>
			<path class="st5" d="M278.1,69.1c-4.3,3.5-8.8,6.6-13.6,9.4c-6.8,3.8-16,12.9-15.1,27.1s4,18.9,3.6,21.5c2.2-0.1,4.5-0.3,6.7-0.6
				c5.4-1.3,17.7-7.1,21.4-18.9C284.9,94.8,283.9,81.1,278.1,69.1z"/>
			<path class="st1" d="M281.3,92c-5.7,4.4-14,4.3-14.1,4.3l0.7-1.4c4.5-8.5,10.2-25.9,10.2-25.9s-7.1,19.1-10.9,24.5
				c0,0-5.2-7.4-3.2-13.4c0,0-3,6,2.4,14.5c-1.2,2.1-2.9,5.5-4.6,9.3c0,0-6.4-8.4-6.9-15.6c0.4,6.1,2.6,11.9,6.4,16.7v-0.1
				c-1.4,3.1-2.9,6.5-4.1,9.5l0.2-0.5c0,0-5-5.6-6.4-12.1c0.8,4.9,2.8,9.4,5.9,13.3l0.3-0.6c-2.4,5.7-4.3,10.3-4.3,10.3l0.1,2
				c1.5-2.3,4.8-10,8.2-17.6c14.5,1.1,18.6-5.3,18.6-5.3c-5.8,5.4-16.9,4.4-18.2,4.3c1.8-4.1,3.6-8.1,5.1-11.2
				C272.1,97.3,277.3,95.5,281.3,92z"/>
			<path class="st2" d="M277.5,100.6c-4.8,13.5-14.5,16.1-19,18.9c-2.9,1.9-4,5.2-5.4,7.5c2.2-0.1,4.4-0.3,6.5-0.6
				c5.4-1.3,17.7-7.1,21.4-18.9c3.1-10.1,3-21-0.1-31.1l-2.8-7.3C278.2,69.1,282.4,87.1,277.5,100.6z"/>
			<path class="st3" d="M280.7,79c0,0,6.9,20.4-5.6,36c-5.4,6.7-13.5,10.8-22.1,11.3C253,126.3,285.3,121.2,280.7,79z"/>
			<path class="st4" d="M252.9,119.5c0,0-6.1-15.3,0.8-28.4c3.6-6.5,9.5-11.4,16.5-13.8C270.2,77.3,246.5,88,252.9,119.5z"/>
			<path class="st5" d="M299.7,134.4c-4.6-3-8.9-6.4-13-10.1c-5.7-5.3-17.1-11.5-30.3-6.3s-16.9,9.5-19.4,9.8
				c0.7,2.1,1.6,4.2,2.6,6.2c2.9,4.8,12.1,14.8,24.4,14.8C277.2,148.6,290,143.5,299.7,134.4z"/>
			<path class="st6" d="M304,143.2c-4-3.8-7.7-7.9-11.1-12.3c-4.7-6.2-14.8-14.3-28.8-11.5s-18.3,6.4-20.9,6.3
				c0.4,2.2,0.9,4.4,1.5,6.5c2,5.2,9.3,16.7,21.4,18.8C279.4,153.2,292.8,150.4,304,143.2z"/>
			<path class="st1" d="M281.6,149.3c-5.1-5.1-6-13.4-6-13.4l1.5,0.5c9,3.3,27,6.8,27,6.8s-19.9-4.6-25.7-7.7c0,0,6.7-6.1,12.8-4.8
				c0,0-6.3-2.2-14.1,4.3c-2.2-1-5.9-2.2-9.9-3.4c0,0,7.5-7.4,14.5-8.8c-6,1.2-11.5,4.1-15.8,8.5h0.1c-3.3-1-6.8-2-9.9-2.9l0.5,0.1
				c0,0,5-5.7,11.2-7.9c-4.7,1.4-9,4-12.4,7.6l0.7,0.2c-6-1.7-10.8-3-10.8-3l-2,0.4c2.5,1.2,10.5,3.5,18.5,5.9
				c0.7,14.6,7.7,17.8,7.7,17.8c-6.1-5.1-6.5-16.2-6.6-17.5c4.3,1.3,8.5,2.6,11.8,3.7C275.2,140.8,277.7,145.7,281.6,149.3z"/>
			<path class="st2" d="M272.7,146.6c-14-3.1-17.8-12.3-21.2-16.4c-2.2-2.7-5.7-3.3-8.1-4.4c0.4,2.2,0.9,4.3,1.5,6.4
				c2,5.2,9.3,16.7,21.5,18.8c10.4,1.7,21.2,0.3,30.8-4.1l6.9-3.8C304,143.2,286.7,149.7,272.7,146.6z"/>
			<path class="st3" d="M294.5,147c0,0-19.4,9.5-36.5-1c-7.3-4.6-12.4-12-14-20.4C244,125.5,253.2,157,294.5,147z"/>
			<path class="st4" d="M250.8,124.6c0,0,14.4-8,28.3-2.8c6.9,2.7,12.6,7.9,15.8,14.6C294.9,136.4,281.3,114.2,250.8,124.6z"/>
			<path class="st0" d="M0,94c6-0.7,11.9-1.8,17.7-3.4c8.2-2.4,22.3-2.7,32.6,8.9s11.7,17.6,14.1,19.2c-1.8,1.7-3.6,3.3-5.6,4.7
				c-5.2,3.2-19.1,8.4-31.1,2.3C14.9,118.9,5,107.6,0,94z"/>
			<path class="st1" d="M15.5,114c7.8-1.1,14.1-7.7,14.1-7.7l-1.6-0.5C18,102.8,0,94,0,94s20.3,9.1,27.4,10.2c0,0-1.8-9.8-8-12.7
				c0,0,7,2.2,9.4,13c2.6,0.6,6.5,2,10.8,3.5c0,0-1.7-11.4-6.9-17.3c0,0,6.4,6.3,8.1,17.7h-0.1c3.5,1.3,7.2,2.7,10.6,4l-0.5-0.2
				c0,0-0.5-8.3-4.5-14.3c3.2,4.3,5.2,9.4,5.8,14.8l-0.7-0.3c6.3,2.5,11.3,4.5,11.3,4.5l1.5,1.7c-3-0.6-11.5-3.8-20-7
				C34.2,123.8,26,122.1,26,122.1c8.7-0.4,16.3-9.8,17.2-10.9c-4.6-1.7-9.1-3.4-12.7-4.6C26.6,110.9,21.2,113.5,15.5,114z"/>
			<path class="st2" d="M25,117.6c14.2,6.5,23.6,1,29.2-0.3c3.7-0.8,7.1,0.8,10,1.5c-1.7,1.6-3.6,3.2-5.5,4.6
				c-5.2,3.2-19.1,8.4-31.1,2.3C17.4,120.3,9,112,3.5,101.8L0,94C0,94,10.8,111.1,25,117.6z"/>
			<path class="st3" d="M5.7,103.6c0,0,10.7,21,32.4,23.1c9.4,0.9,18.7-2.2,25.7-8.6C63.8,118.1,35.2,139.4,5.7,103.6z"/>
			<path class="st4" d="M58.6,112.8c0,0-7.2-16.4-22.8-21.1c-7.8-2.2-16.2-1.3-23.4,2.3C12.4,94.1,38.9,83.7,58.6,112.8z"/>
			<path class="st5" d="M19.6,73c5.2,1.7,10.6,3,16,3.9c7.7,1.1,19.6,6.2,23.8,19.8s3.1,19.1,4.5,21.3c-2.1,0.7-4.3,1.3-6.5,1.8
				c-5.5,0.7-19.1-0.2-26.8-9.9C22.5,99.4,18.6,86.2,19.6,73z"/>
			<path class="st5" d="M19.6,68.2c5.2,1.7,10.6,3,16,3.9c7.7,1.1,19.6,6.2,23.8,19.8s3.1,19.1,4.5,21.3c-2.1,0.7-4.2,1.3-6.4,1.8
				c-5.5,0.7-19.1-0.2-26.8-9.9C22.5,94.6,18.6,81.5,19.6,68.2z"/>
			<path class="st1" d="M24.9,90.8c6.9,2,14.6-1.1,14.7-1.1c-0.4-0.4-0.8-0.7-1.1-1c-7.2-6.3-18.9-20.4-18.9-20.4s13.5,15.3,19,18.9
				c0,0,2.2-8.8-1.9-13.6c0,0,5,4.5,3,14.4c1.9,1.5,4.7,4.1,7.7,7c0,0,2.9-10.1,0.8-17c1.8,5.8,1.8,12,0.1,17.9l-0.1-0.1
				c2.5,2.4,5,5,7.3,7.3l-0.4-0.4c0,0,2.7-7.1,1.6-13.6c1,4.8,0.8,9.8-0.7,14.5l-0.5-0.5c4.3,4.4,7.7,8.1,7.7,8.1l0.6,2
				c-2.3-1.6-8.1-7.5-14-13.4c-13.2,6.3-19.3,1.8-19.3,1.8c7.4,3,17.3-2,18.5-2.6c-3.2-3.2-6.3-6.3-8.8-8.6
				C35.4,92.4,29.9,92.6,24.9,90.8z"/>
			<path class="st2" d="M31.5,97.4c9.4,10.8,19.3,9.8,24.5,10.8c3.4,0.7,5.6,3.4,7.7,5c-2.1,0.7-4.2,1.3-6.3,1.8
				c-5.5,0.7-19.1-0.2-26.8-9.9c-6.5-8.3-10.4-18.4-11.1-29v-7.9C19.6,68.2,22.1,86.6,31.5,97.4z"/>
			<path class="st3" d="M20.7,78.4c0,0,0.9,21.6,18.3,31.6c7.5,4.3,16.5,5.2,24.7,2.6C63.7,112.6,31.7,119.4,20.7,78.4z"/>
			<path class="st4" d="M61.3,106.1c0,0,0.2-16.4-11-26.2c-5.7-4.8-13-7.3-20.4-6.9C29.9,73,55.9,74.4,61.3,106.1z"/>
			<path class="st5" d="M23,137c3.2-4.5,6-9.2,8.5-14.2c3.4-7,11.8-16.9,26-16.9s19.2,2.7,21.7,2.1c0.1,2.2,0,4.5-0.2,6.7
				c-1,5.5-5.9,18.2-17.4,22.6C49.2,142.1,35.4,141.9,23,137z"/>
			<path class="st6" d="M22.2,146.7c2.4-5,4.3-10.1,5.9-15.4c2.1-7.5,8.7-18.7,22.7-21.1s19.3-0.6,21.7-1.7c0.5,2.2,0.8,4.4,1,6.6
				c0,5.6-2.7,18.9-13.2,25.3C48.8,147.1,35.3,149.4,22.2,146.7z"/>
			<path class="st1" d="M45.3,144.2c2.9-6.6,0.8-14.6,0.8-14.7l-1.2,1c-7.2,6.4-22.7,16.1-22.7,16.1s16.8-11.5,21.2-16.5
				c0,0-8.5-3.3-13.7,0.1c0,0,5.1-4.4,14.7-1.1c1.7-1.7,4.7-4.1,8-6.8c0,0-9.7-4.2-16.8-3c6-1.1,12.2-0.3,17.7,2.2l-0.1,0.1
				c2.7-2.1,5.6-4.3,8.2-6.3l-0.4,0.3c0,0-6.7-3.5-13.3-3.3c4.9-0.4,9.8,0.5,14.3,2.6l-0.6,0.4c5-3.7,9-6.7,9-6.7l2-0.3
				c-1.9,2-8.5,7.1-15.1,12.2c4.6,13.9-0.7,19.4-0.7,19.4c3.9-6.9,0.3-17.4-0.2-18.7c-3.5,2.7-7,5.5-9.7,7.7
				C48.2,134.1,47.7,139.5,45.3,144.2z"/>
			<path class="st2" d="M52.7,138.5c11.9-7.9,12.1-17.9,13.8-22.9c1.1-3.3,4.1-5.2,6-7c0.5,2.1,0.8,4.3,1,6.5
				c0,5.6-2.7,18.9-13.2,25.3c-9.2,5.4-19.7,7.9-30.3,7.3l-7.8-1C22.2,146.7,40.8,146.5,52.7,138.5z"/>
			<path class="st3" d="M32.4,146.8c0,0,21.5,1.8,33.6-14.1c5.2-6.9,7.3-15.7,5.7-24.2C71.8,108.6,74.5,141.2,32.4,146.8z"/>
			<path class="st4" d="M65.1,110.1c0,0-16.3-2.3-27.4,7.6c-5.5,5-8.8,11.9-9.4,19.3C28.3,137,33,111.4,65.1,110.1z"/>
			<path class="st7" d="M107.7,4.7c-0.6,0-10.8-1-10.8-1L75.6,5H57.1l-0.6,26.8l1.2,1.2l-0.2,8.3l1.8,2.7l-0.6,24.1l1.1,2.2
				l-0.1,4.1l-2,2.8l-0.6,2.2l-0.2,17.8l-0.2,1.2l-0.3,13.4l1.6,3.3l2,1.6l-1,2.6l-1.4,20.9l3.6,5.2l-4.2,2.6l1,7.9l4.5,2.5
				l86.8,1.2l107.6-1l3.7-2.4l-0.7-30.4l-1.8-9.1l-1.5-1.7l1.5-1.3l-0.3-12.5l1.4-7.1c0,0-1.5-16.1-2.3-15.9s2.6-2,2.6-2
				s-0.4-6.6,0.2-7.1c0.6-0.6,1.2-1.3,1.8-2l-0.4-26.4l-5.2-1l-1.8-2l0.2-6.1l2-4.4L255.5,5l-3-2.7l-79.7-0.3l-3.6,2l-37-0.1
				L107.7,4.7z"/>
			<polygon class="st8" points="155.1,151.4 62.6,152.5 62.5,158.5 149.3,159.7 256.9,158.7 257.1,153.3 			"/>
			<path class="st8" d="M259.2,94c0,0-0.9-9.2-1.6-13.6l-0.7-2.3l-10.2,16.5l-0.2,7.7l9.3,11l2.4,0.3l-0.3-12.5L259.2,94z"/>
			<path class="st8" d="M258.1,116.7c0,0,0,10.1-1.2,11.3c-1.5,1.2-3,2.2-4.7,3.1l1.6,7l4.8,12.7l2.1,5.4l-0.7-30.4L258.1,116.7z"/>
			<polygon class="st8" points="83,142.6 79.7,137.5 70.6,129.8 60.7,116.7 58.9,119.5 57.5,140.3 61.1,145.5 82.2,145.3 			"/>
			
				<linearGradient id="SVGID_1_" gradientUnits="userSpaceOnUse" x1="159.025" y1="14.7" x2="159.025" y2="172.81" gradientTransform="matrix(1 0 0 -1 0 167.89)">
				<stop  offset="0" style="stop-color:#ECCC8A"/>
				<stop  offset="1" style="stop-color:#D7A457"/>
			</linearGradient>
			<path class="st9" d="M107.7,4.7c-0.6,0-10.8-1-10.8-1L75.6,5H57.1l-0.6,26.8l1.8,1v8.5l40.9,0.1l-38.1,2.3l-0.6,24.4l2.4,0.5
				l-2.4,1.2v4.9l50.7,2.7l-53.5-0.3l-0.6,2.2l-0.2,17.8l4,0.5l-3.8,0.7l0.4,13.4l1.4,2.4h43.8l-42,2.4l-1.2,2.4l0.4,21.7l3.6,3.4
				l18.7,1L64.5,146l-3.4-0.5l-2.2,1.2l0.4,4.6l3.2,1.5l86.8,1.2l107.6-1l1.6-2.2l-0.2-18.1l-3.8-0.5l3.4-1.2l-0.4-14.4h-40.4
				l37.8-2l0.8-1.5l0.4-10.5l-7.4-0.2l7.2-1.5l1.2-7c0,0,0-16.1-0.8-15.9s-64.1,1.5-64.1,1.5l67.3-3.4c0,0-0.4-6.6,0.2-7.1
				c0.6-0.6,1.2-1.3,1.8-2l-0.4-26.4l-5.2-1l-51.5,2.4l49.7-4.3l0.2-6.1l2-4.4l-0.8-22.2l-3-2.7l-79.7-0.3l-3.6,2l-37-0.3L107.7,4.7
				z"/>
			<g>
				<defs>
					<path id="SVGID_2_" d="M107.7,4.7c-0.6,0-10.8-1-10.8-1L75.6,5H57.1l-0.6,26.8l1.8,1v8.5l40.9,0.1l-38.1,2.3l-0.6,24.4l2.4,0.5
						l-2.4,1.2v4.9l50.7,2.7l-53.5-0.3l-0.6,2.2l-0.2,17.8l4,0.5l-3.8,0.7l0.4,13.4l1.4,2.4h43.8l-42,2.4l-1.2,2.4l0.4,21.7l3.6,3.4
						l18.7,1L64.5,146l-3.4-0.5l-2.2,1.2l0.4,4.6l3.2,1.5l86.8,1.2l107.6-1l1.6-2.2l-0.2-18.1l-3.8-0.5l3.4-1.2l-0.4-14.4h-40.4
						l37.8-2l0.8-1.5l0.4-10.5l-7.4-0.2l7.2-1.5l1.2-7c0,0,0-16.1-0.8-15.9s-64.1,1.5-64.1,1.5l67.3-3.4c0,0-0.4-6.6,0.2-7.1
						c0.6-0.6,1.2-1.3,1.8-2l-0.4-26.4l-5.2-1l-51.5,2.4l49.7-4.3l0.2-6.1l2-4.4l-0.8-22.2l-3-2.7l-79.7-0.3l-3.6,2l-37-0.3
						L107.7,4.7z"/>
				</defs>
				<clipPath id="SVGID_3_">
					<use xlink:href="#SVGID_2_"  style="overflow:visible;"/>
				</clipPath>
				<g class="st10">
					<path class="st11" d="M51.7,134.2c0,0,36-10.1,73.5-10.6c36.4-0.5,83.9,3.8,94.3,5.2l-0.7,1.4c0,0-113-2.8-155.5,11.4
						C63.3,141.6,50.5,140.1,51.7,134.2z"/>
					<path class="st12" d="M119.2,158c0,0,57.5-19,88-19.5c29.8-0.5,38.1-1,38.1-1s-65.1,6.1-72.2,9.8c-4.1,2.1-8,4.6-11.7,7.3
						C161.4,154.6,121.8,159.4,119.2,158z"/>
					<path class="st13" d="M187.6,158c0,0,18.7-7.9,30.3-9.3s45.7-7.1,45.7-7.1l1.3,14C264.9,155.6,194.3,160.2,187.6,158z"/>
					<path class="st14" d="M144.1,87.8c-11.6,0.8-21.1,3.7-21.3,6.3s9.2,4.1,20.8,3.2s20.8-3.7,20.9-6.3S155.5,87,144.1,87.8z
						 M151.2,93.9c-4.9,0.4-8.8-0.1-8.7-1.1s4.1-2.1,8.9-2.4s8.7,0.2,8.7,1.1S156,93.6,151.2,93.9L151.2,93.9z"/>
					<path class="st15" d="M264.6,90.3c0,0-39.6-1.6-49-3.2s-48.8-7.6-61.5-7.7s-44.8,9.7-52.1,14.1s-6.2,10.9,5.8,12.2
						s47.8-1.1,61.2-6.2c0.6-0.2,11.1-0.8,14.9-3.3c3.3-2.2,6.8-4,10.5-5.4c1.5-0.4,25.2,1.2,37.5,2.8s31.7,1.5,31.7,1.5L264.6,90.3
						z M187.4,88c-1.8,0.9-7.9,0.7-10.8,1s-1.4,3-0.6,4.1s-1.8,1.8-4.1,2.6s-6.3,1.8-9.8,3.1c-2.1,0.8-7.9,1.7-16.8,1.9
						s-36.1-0.5-32.8-5s15.6-7.8,28.1-11s34.3-1,40.7-0.1S189.2,87.1,187.4,88z"/>
					<path class="st13" d="M274.8,131.8c0,0-42.4-5.9-57.6-6.9c-15.4-1-22.7-2.5-22.7-2.5s52.2,1.5,58.4,0.9s22.4,1.3,25.6,3.3
						S274.8,131.8,274.8,131.8z"/>
					<path class="st13" d="M70.9,157.6c0,0,43.9-10,59.8-12.4c16.1-2.5,23.6-4.7,23.6-4.7s-54.9,6.4-61.5,6.4s-23.4,3.4-26.6,5.7
						S70.9,157.6,70.9,157.6z"/>
					<path class="st16" d="M60.3,119c-0.5,0.5,30.7-2.4,43-2.8s68.4-6.2,68.4-6.2s-68,0.3-70,0.6S70.8,107.3,60.3,119z"/>
					<path class="st17" d="M61.7,107.9c0,0,12.4-8.4,24.1-13.1s21.1-9,22.6-9s-27.2,5.8-34.4,9.8s-17.8,9.9-17.8,9.9
						S59,108.3,61.7,107.9z"/>
					<path class="st15" d="M264.6,65.9c-8.7-3.1-23.9-5-25-4.8S206,57.2,206,57.2s-61.3,5.9-69.6,8.4c-8.3,2.6-18.7,2.5-35.3,1
						C84.3,65,48.6,64,48.6,64s-4.2,3-1.9,11.3s2.5,15.4,7,18c0,0,28.7-11.8,39-14.8s34.8-4.8,38.7-4.5s49.8,0.4,49.8,0.4
						s46.7,1.9,58.5,4s30.3,3.5,30.3,3.5l1.5-2l2.7-9.1C274.2,70.8,273.2,68.9,264.6,65.9z M213.8,71.3C205.5,70,159,69,159,69
						s29.3-4.8,37.8-5.5s21.4,2.2,33.7,3.5s36.5,9,36.5,9S222,72.5,213.8,71.3L213.8,71.3z"/>
					<path class="st17" d="M55.2,46.1c0,0,34.1,0.7,45.5-2.9S135.4,31,146.6,29s23.1-2.6,32.1-1.4s76.5,0.9,84.9-3.9
						c-2.6-0.5-5.2-1.2-7.7-2.1c0,0-46,3.9-65.7,3.1c-20-0.8-57.8-5.7-71.1-7.6S58.8,21,52.3,22s-4.6,4.4-4.6,4.4s50.8-4.1,57-5.1
						s26.8-3.2,21.1,3.2s-29.5,13-41.4,14.1s-26.1,1-26.1,1L55.2,46.1z"/>
					<path class="st18" d="M88.6,0.5c0,0,52.6,14.4,72.2,15.7c19.4,1.3,46.9,2,47.7,1.6s49.6-2.2,49.6-2.2s-54.3,0.5-58.3,0.4
						c-4-0.1-11.3-4.6-20.6-6.8s-29.7-9-29.7-9L136.8,0c0,0,5.6,4.2,11.2,5.2s17.8,3.7,18.8,3.9s11.4,4.3,11.4,4.3s1.8,0.9-10.9,0.7
						s-53.3-9.6-59.3-13.6H88.6z"/>
					<path class="st14" d="M52.7,52.7c0,0,44.1,0.4,54.3-3.7s56.7-12.2,68.2-13.5s23.1-0.8,18.1,1.5s-23.8,1.3-15.5,5.8
						s34.7,6.2,42.4,5.7s37.9-7.7,41.2-13.9l6,3.3c0,0-29.7,14.3-44.8,15c-15.3,0.7-45.8-3.9-51.4-7.4s-8.3-4.8-25.7-0.9
						c-17.7,4-54.2,10.5-65.5,10.9s-30,1.5-30,1.5L52.7,52.7z"/>
					<path class="st17" d="M143.4,116c0,0,102.7-9,118.7-5.7l-2.1,2.5c0,0-40.1-1-51.1,0.4S143.4,116,143.4,116z"/>
					<path class="st19" d="M191.3,105c0.8-0.5,67.9,1.6,74.5,2.5l3.8-4.2c0,0-17.3-1.6-26.5-0.7S191.3,105,191.3,105z"/>
				</g>
			</g>
			<g class="st20">
				<path class="st17" d="M257.1,94c0,0,0-16.1-0.8-15.9c-0.3,0.1-8.5,0.3-19,0.5c1.6,1,3.4,1.7,5.2,2c2.9,0.5,8.6,3.4,8.6,6.2
					s-1.7,8.2-2,11.9s-2.1,7.6-0.9,7.7s4.5,0.1,0.9,3.1s-25.5,6.8-26.8,6.9l32.7-1.7l0.8-1.5l0.4-10.5l-7.4-0.2l7.2-1.5L257.1,94z"
					/>
				<path class="st17" d="M247.8,8.5c0,0,0.4-1,0.8,7.4s2.9,13.7,0.4,15.6s2.9-0.5-2.4,1.9s-39.4,8.5-39.5,8.5l47-4l0.2-6.1l2-4.4
					l-0.8-22.2l-3-2.7l-79.7-0.3l-3.6,2h-7.3L247.8,8.5z"/>
				<path class="st17" d="M97,153.3l52.3,0.7l107.6-1l1.6-2.2l-0.2-18.1l-3.8-0.5l3.4-1.2l-0.4-14.4h-32.8c6.4,0.6,22.6,2,23.9,4
					c1.6,2.6,2.7,12.4,2.4,17.7s-29.7,8.6-61,12.5C167,153.6,120.2,153.5,97,153.3z"/>
				<path class="st17" d="M255.9,39.9l-14.5,0.7c4,0.1,7.2,0.3,8.4,0.8c5,2.2,6.2,2.1,5.4,6c-0.9,4.2-1.4,8.5-1.6,12.9
					c0.1,2.7-0.1,5.5-0.8,8.1c-0.2,0.4-0.2,0.9-0.1,1.3c-0.4,0-1.2,0.2-3.2,1.4c-5.5,3.2-5.1,6-10.5,6.3l0,0l20.7-1
					c0,0-0.4-6.6,0.2-7.1c0.6-0.6,1.2-1.3,1.8-2l-0.4-26.4L255.9,39.9z"/>
				<path class="st17" d="M83.3,153.1L83.3,153.1z"/>
			</g>
			<polygon class="st8" points="60.7,116.7 58.9,114.3 101,114.3 			"/>
			<polygon class="st8" points="57.7,77.2 109.7,77.4 60.5,74.7 59.7,74.4 			"/>
			<g>
				<path class="st21" d="M57.5,111.8l1.4,2.4H101l-40.9-1.6c-0.4-0.8-0.9-1.6-1.5-2.3c-0.5-0.6-1-10.9-1-10.9l3.2-1.8l-3.8,0.7
					L57.5,111.8z"/>
				<path class="st21" d="M253,40l6,4.4c0,0,1.1,17.9,0.9,18.9s-1,4.3-1.4,5.4c-0.2,1.8-0.3,3.5-0.2,5.3L245,77l14.5-0.7
					c0,0-0.4-6.6,0.2-7.1c0.6-0.6,1.2-1.3,1.8-2l-0.4-26.4l-5.2-1L253,40z"/>
				<path class="st21" d="M57.9,96.1c0,0,0.2-15.7,0.5-16.3s48.8-2.4,49.9-2.4l-30.2-0.1h-3.2l-16.3-0.1l-1,0.4l-0.5,1.8l-0.2,17.8
					l4,0.5L57.9,96.1z"/>
				<path class="st21" d="M60.5,150.3l-0.4-1.6l1-1.6c0.7,0,1.5,0,2.2,0.1c1,0.1,18.9-2,18.9-2L64.5,146l-3.4-0.5l-2.2,1.2l0.4,4.6
					l3.2,1.5l86.8,1.2l107.6-1l1.6-2.2l-0.2-18.1l-3.8-0.5l3.4-1.2l-0.4-14.4h-40.4l39.5,1.3l0.5,12.3l-4,2.4l3.9,1.3
					c0,0,0.2,13.3,0.1,14.3c-0.3,1.2-0.6,2.4-1,3.6c0,0-68.9,0-75,0.3s-116.8-0.7-116.8-0.7L60.5,150.3z"/>
				<path class="st21" d="M61.2,139.8l-0.6-16.6c0,0,0.5-4.2,1.1-4.7s28.1-3.2,36.8-4l-37.8,2.2l-1.2,2.4l0.4,21.7l3.6,3.4l18.7,1
					l-18.3-2.6L61.2,139.8z"/>
				<path class="st21" d="M255.7,113.3l0.4-10.5l-7.4-0.2l7.2-1.5l1.2-7.1c0,0,0-16.1-0.8-15.9c-0.3,0.1-8.5,0.3-19,0.5l0,0l17.4,1
					l1.3,13.4c0,0-0.9,5.6-1.2,6.1s-8.4,3.1-8.4,3.1l8.4,1.5c0,0-0.2,8.9-0.4,9.3s-37.3,3.6-37.3,3.6l37.8-2L255.7,113.3z"/>
			</g>
		</g>
	</g>
</g>
</svg>
