<svg xmlns="http://www.w3.org/2000/svg" xmlns:xlink="http://www.w3.org/1999/xlink" viewBox="0 0 355.14 139.59"><defs><style>.cls-1{fill:none;}.cls-2{isolation:isolate;}.cls-3{fill:#e6e7e7;}.cls-4{fill:#088543;}.cls-5{fill:#a5ce3a;}.cls-26,.cls-5,.cls-7,.cls-8{mix-blend-mode:soft-light;}.cls-6{fill:#0db259;}.cls-16,.cls-17,.cls-19,.cls-25,.cls-6{opacity:0.3;}.cls-13,.cls-25,.cls-6,.cls-9{mix-blend-mode:multiply;}.cls-27,.cls-7,.cls-8{fill:#fff;}.cls-20,.cls-23,.cls-24,.cls-7{opacity:0.5;}.cls-18,.cls-21,.cls-8{opacity:0.4;}.cls-10,.cls-9{fill:#0ea94e;}.cls-11{fill:#4ab749;}.cls-12{fill:#6f3a24;}.cls-13,.cls-17,.cls-24{fill:#bc905c;}.cls-14{fill:url(#linear-gradient);}.cls-15{clip-path:url(#clip-path);}.cls-16,.cls-20,.cls-21,.cls-22{fill:#d7a457;}.cls-18,.cls-19,.cls-23{fill:#c7813e;}</style><linearGradient id="linear-gradient" x1="180.08" y1="123.1" x2="180.08" y2="-2.45" gradientUnits="userSpaceOnUse"><stop offset="0" stop-color="#eccc8a"/><stop offset="1" stop-color="#d7a457"/></linearGradient><clipPath id="clip-path"><path class="cls-1" d="M110.06,10.28c-.82-.06-14.73-1.89-14.73-1.89-11.56-.64-17.33-1-28.83-2-10-1.14-15-1.76-24.91-3.14-.33,8.77-.49,13.17-.82,22l2.44,1v7q27.59,2,55.28,3.23-25.76-.25-51.49-1c-.33,7.91-.5,11.86-.82,19.79l3.25.47c-1.3.36-2,.55-3.25.93v4q34.28,1.41,68.58,2.41-36.18-.18-72.36-.44c-.33.72-.48,1.08-.81,1.8-.11,5.85-.17,8.78-.27,14.64l5.4.23c-2.06.3-3.08.45-5.13.77.22,4.4.32,6.6.54,11,.76.76,1.13,1.14,1.89,1.88Q73.63,91.21,103.24,90q-28.47,1.91-56.79,4.75l-1.62,2.1c.22,7.07.33,10.61.54,17.66,2,.9,2.92,1.34,4.88,2.22,10.06-.81,15.1-1.17,25.21-1.81-9.57,1.11-14.34,1.72-23.87,3l-4.59.13-3,1.35c.22,1.49.32,2.23.54,3.72l4.32.63c39.24-4.3,78.17-6.85,117.83-7.66A1270,1270,0,0,1,313.16,123l2.17-1.49c-.11-5.77-.16-8.66-.27-14.43l-5.15-.84,4.6-.57c-.21-4.61-.32-6.91-.54-11.51q-27.3-1.66-54.69-2.62,25.59.19,51.17.87l1.08-1.1c.22-3.31.33-5,.54-8.29l-10-.55,9.77-.81c.65-2.22,1-3.33,1.62-5.57,0,0-.09-12.71-1.08-12.61-25.75,2.63-58,.89-87,1.19,30.45-.8,60.89-1.66,91.32-2.76,0,0-.54-5.26.27-5.67a24.06,24.06,0,0,0,2.44-1.61c-.22-8.48-.33-12.72-.55-21.18l-7-.32Q277,36.28,241.91,38q33.84-2.43,67.45-6.31c.11-1.93.16-2.89.27-4.83,1.09-1.46,1.63-2.2,2.72-3.69-.44-7-.65-10.51-1.09-17.48L307.2,4.09a1014.27,1014.27,0,0,1-108.41,7.1c-2,.57-3,.85-4.94,1.4-20.18.1-30.27-.09-50.42-1C130.07,11.29,123.39,11,110.06,10.28Z"/></clipPath></defs><title>Asset 3</title><g class="cls-2"><g id="Layer_2" data-name="Layer 2"><g id="Layer_1-2" data-name="Layer 1"><path class="cls-3" d="M315.66,132.94c0,3.68-59,6.65-131.84,6.65S52,136.62,52,132.94s59-6.64,131.83-6.64S315.66,129.27,315.66,132.94Z"/><path class="cls-4" d="M355.14,60.28A112.6,112.6,0,0,1,337.91,63c-8.22.55-21.2,4.91-26.79,18.86s-4.86,19.86-6.47,22.07a64.31,64.31,0,0,0,6.65,2.46c5.78,1.23,20.15,1.36,29.05-8.16A56.66,56.66,0,0,0,355.14,60.28Z"/><path class="cls-5" d="M347.64,83.59c-7.47,1.55-15.34-2.35-15.38-2.36l1.29-1c8.13-6,21.59-20,21.59-20S339.63,75.22,333.51,78.6c0,0-1.57-9.5,3.11-14.18,0,0-5.63,4.32-4.33,14.94-2.13,1.41-5.3,3.93-8.72,6.77,0,0-2.24-10.93.56-18,0,0-3.77,7.83-1.57,18.82l.09-.08c-2.79,2.34-5.69,4.84-8.29,7.12l.42-.37s-2.22-7.69-.57-14.46a30.12,30.12,0,0,0-.48,15.37l.56-.48c-5,4.33-8.83,7.85-8.83,7.85l-.81,2c2.51-1.5,9.16-7.25,15.87-13,13.35,7.74,20.22,3.46,20.22,3.46-8,2.49-18.1-3.53-19.28-4.26,3.6-3.08,7.18-6.09,10-8.34A22.19,22.19,0,0,0,347.64,83.59Z"/><path class="cls-6" d="M340.11,90c-10.8,10.63-21.18,8.66-26.73,9.32-3.64.43-6.22,3.09-8.58,4.67a62,62,0,0,0,6.5,2.39c5.78,1.23,20.15,1.36,29.05-8.16a56.11,56.11,0,0,0,14.13-29.68l.66-8.29S350.92,79.4,340.11,90Z"/><path class="cls-7" d="M353.07,70.89s-2.79,22.64-21.9,31.75a32.6,32.6,0,0,1-26.23.65S338.08,113.21,353.07,70.89Z"/><path class="cls-8" d="M308,96.69S309.14,79.35,321.77,70a31.3,31.3,0,0,1,22.07-5.58S316.33,63.73,308,96.69Z"/><path class="cls-9" d="M330.39,47.63a102.61,102.61,0,0,1-13.33,8.81c-6.65,3.56-15.82,12.12-15.2,25.87s3.46,18.4,3,20.86a57.62,57.62,0,0,0,6.48-.47c5.28-1.16,17.31-6.49,21.13-17.8A51.86,51.86,0,0,0,330.39,47.63Z"/><path class="cls-10" d="M328.82,43.27a102.61,102.61,0,0,1-13.33,8.81c-6.65,3.57-15.82,12.12-15.2,25.87s3.46,18.4,3,20.86a57.62,57.62,0,0,0,6.48-.47c5.28-1.16,17.31-6.49,21.13-17.8A51.86,51.86,0,0,0,328.82,43.27Z"/><path class="cls-5" d="M331.39,65.55c-5.64,4.12-13.68,3.85-13.71,3.85.24-.46.48-.9.7-1.3,4.49-8.12,10.44-24.83,10.44-24.83s-7.27,18.33-11.1,23.47c0,0-4.91-7.33-2.77-13,0,0-3.06,5.73,2,14.1-1.23,2-2.92,5.28-4.7,8.94,0,0-6-8.26-6.34-15.2a29.27,29.27,0,0,0,5.82,16.28l0-.09c-1.44,3-2.91,6.19-4.22,9.07l.21-.47s-4.75-5.57-6-11.83a27.64,27.64,0,0,0,5.42,13l.29-.62c-2.49,5.49-4.4,9.89-4.4,9.89l.1,2c1.52-2.21,4.89-9.52,8.32-16.84,14.06,1.4,18.17-4.76,18.17-4.76C324,82.33,313.31,81.12,312.05,81c1.84-3.93,3.68-7.79,5.21-10.76A20.29,20.29,0,0,0,331.39,65.55Z"/><path class="cls-6" d="M327.56,73.77c-5,13-14.39,15.25-18.77,17.9-2.87,1.74-4,4.93-5.39,7.14a54.16,54.16,0,0,0,6.33-.47c5.28-1.16,17.31-6.49,21.13-17.8a51.36,51.36,0,0,0,.55-30.1l-2.59-7.17S332.54,60.82,327.56,73.77Z"/><path class="cls-7" d="M331.11,52.9s6.25,19.94-6.24,34.77a29.86,29.86,0,0,1-21.62,10.48S334.64,93.87,331.11,52.9Z"/><path class="cls-8" d="M303.26,91.5S297.68,76.59,304.68,64A28.74,28.74,0,0,1,321,51S297.76,60.84,303.26,91.5Z"/><path class="cls-9" d="M347.94,110.23A102.64,102.64,0,0,1,336.66,98.9c-4.81-5.8-15-13.1-28.36-9.77s-17.35,7-19.87,7a59.16,59.16,0,0,0,1.75,6.26c2.18,5,9.79,15.68,21.63,17.19A51.88,51.88,0,0,0,347.94,110.23Z"/><path class="cls-11" d="M352.25,115.56a101.57,101.57,0,0,1-10.44-12.1c-4.39-6.13-14-14.14-27.59-11.77s-17.82,5.78-20.32,5.59a59.33,59.33,0,0,0,1.29,6.37c1.82,5.09,8.64,16.34,20.35,18.69A51.88,51.88,0,0,0,352.25,115.56Z"/><path class="cls-5" d="M330.47,121c-4.81-5.08-5.56-13.08-5.57-13.12.5.18,1,.36,1.39.53,8.62,3.42,26,7.19,26,7.19s-19.12-4.87-24.7-8c0,0,6.64-5.79,12.54-4.4,0,0-6.07-2.3-13.72,3.82-2.12-1-5.61-2.24-9.47-3.53,0,0,7.43-7,14.27-8.22a29.23,29.23,0,0,0-15.41,7.84l.1,0c-3.17-1-6.51-2.1-9.54-3l.49.15s4.93-5.43,11-7.41a27.61,27.61,0,0,0-12.2,7l.65.19c-5.76-1.77-10.37-3.09-10.37-3.09l-2,.35c2.38,1.23,10.06,3.64,17.76,6.11.4,14.12,7,17.41,7,17.41-5.82-5.06-6-15.8-6-17.07,4.13,1.33,8.19,2.66,11.33,3.8A20.3,20.3,0,0,0,330.47,121Z"/><path class="cls-6" d="M321.83,118.2c-13.49-3.3-17-12.33-20.14-16.34-2.09-2.62-5.4-3.36-7.77-4.43a54.24,54.24,0,0,0,1.27,6.22c1.82,5.09,8.64,16.34,20.35,18.69a51.43,51.43,0,0,0,29.93-3.29l6.78-3.49S335.32,121.49,321.83,118.2Z"/><path class="cls-7" d="M343,119.06s-19,8.74-35.29-1.76a29.87,29.87,0,0,1-13.15-20.11S302.79,127.78,343,119.06Z"/><path class="cls-8" d="M301.15,96.36s14.07-7.44,27.43-2.09a28.67,28.67,0,0,1,15,14.5S330.86,87,301.15,96.36Z"/><path class="cls-4" d="M24.7,38.53A111.75,111.75,0,0,1,21.64,55.7c-2.18,7.94-2.31,21.64,9,31.49S47.83,98.3,49.4,100.55a64.85,64.85,0,0,0,4.5-5.48C57,90,61.79,76.49,55.72,65A56.59,56.59,0,0,0,24.7,38.53Z"/><path class="cls-5" d="M44.27,53.26C43.28,60.82,37,67,37,67c-.18-.54-.35-1.06-.5-1.54C33.44,55.81,24.7,38.53,24.7,38.53s9,19.55,10.21,26.44c0,0-9.48-1.64-12.36-7.59,0,0,2.23,6.73,12.68,9,.64,2.47,2,6.29,3.53,10.46,0,0-11-1.47-16.79-6.43,0,0,6.15,6.13,17.26,7.66l0-.11c1.3,3.4,2.71,7,4,10.17L43,87.6s-8-.43-13.85-4.2A30.23,30.23,0,0,0,43.5,88.89l-.28-.69c2.47,6.1,4.52,10.92,4.52,10.92l1.66,1.43c-.61-2.86-3.85-11-7.06-19.26,11.69-10.06,9.9-18,9.9-18C52,71.75,43,79.27,41.89,80.15c-1.72-4.42-3.39-8.78-4.59-12.22A22.22,22.22,0,0,0,44.27,53.26Z"/><path class="cls-6" d="M47.88,62.48c6.49,13.7,1.23,22.85,0,28.31-.78,3.58.88,6.89,1.59,9.64a60.44,60.44,0,0,0,4.4-5.36C57,90,61.79,76.49,55.72,65a56,56,0,0,0-23.4-23.09L24.7,38.53S41.39,48.78,47.88,62.48Z"/><path class="cls-7" d="M34.05,44S54.52,54,56.85,75.07a32.5,32.5,0,0,1-8,25S69.11,72,34.05,44Z"/><path class="cls-8" d="M43.62,95s-16-6.8-20.65-21.8a31.3,31.3,0,0,1,2-22.68S15.23,76.32,43.62,95Z"/><path class="cls-9" d="M4.63,57.75a102.53,102.53,0,0,1,4,15.49C9.77,80.69,14.84,92.16,28,96.08s18.52,2.77,20.68,4a57.17,57.17,0,0,0,1.68-6.27c.64-5.37-.45-18.49-9.88-25.81A51.87,51.87,0,0,0,4.63,57.75Z"/><path class="cls-10" d="M0,57.81A102.21,102.21,0,0,1,4,73.29c1.19,7.45,6.26,18.92,19.45,22.85s18.52,2.76,20.68,4a57.5,57.5,0,0,0,1.68-6.28c.64-5.37-.45-18.49-9.88-25.81A51.86,51.86,0,0,0,0,57.81Z"/><path class="cls-5" d="M21.9,62.69c2,6.68-.86,14.19-.87,14.22-.36-.38-.69-.75-1-1.09-6.19-6.91-20-18-20-18S14.93,70.69,18.53,76c0,0-8.53,2.22-13.19-1.66,0,0,4.41,4.78,14,2.71,1.47,1.81,4,4.5,6.91,7.38,0,0-9.77,2.95-16.44,1a29.29,29.29,0,0,0,17.29-.15L27,85.2c2.36,2.35,4.89,4.79,7.18,7l-.37-.36S27,94.48,20.69,93.55a27.58,27.58,0,0,0,14.05-.86l-.49-.47c4.37,4.15,7.9,7.4,7.9,7.4l1.93.57C42.49,98,36.69,92.44,30.9,86.8,36.84,74,32.36,68.07,32.36,68.07c3,7.12-1.7,16.81-2.27,17.94-3.1-3-6.15-6-8.45-8.45A20.34,20.34,0,0,0,21.9,62.69Z"/><path class="cls-6" d="M28.4,69C39,78,38.08,87.6,39.15,92.61c.7,3.28,3.34,5.41,5,7.43a55.24,55.24,0,0,0,1.63-6.13c.64-5.37-.45-18.49-9.88-25.81A51.51,51.51,0,0,0,7.62,57.71L0,57.81S17.8,60.05,28.4,69Z"/><path class="cls-7" d="M9.85,58.8s20.88.64,30.8,17.31A29.84,29.84,0,0,1,43.45,100S49.71,68.92,9.85,58.8Z"/><path class="cls-8" d="M37.18,97.77s-15.92.39-25.48-10.35A28.72,28.72,0,0,1,4.75,67.76S6.41,92.91,37.18,97.77Z"/><path class="cls-9" d="M69.53,61.72a102.63,102.63,0,0,1-14.4,6.93c-7.06,2.64-17.3,9.89-18.54,23.59s.95,18.7.12,21.07a59.12,59.12,0,0,0,6.49.41c5.38-.44,18-4.11,23.33-14.8A51.83,51.83,0,0,0,69.53,61.72Z"/><path class="cls-11" d="M76,59.4a101.8,101.8,0,0,1-14.86,5.89c-7.23,2.12-18,8.62-20.17,22.2s-.39,18.72-1.39,21a58.19,58.19,0,0,0,6.44.87c5.41,0,18.28-2.81,24.34-13.09A51.89,51.89,0,0,0,76,59.4Z"/><path class="cls-5" d="M73.93,81.74c-6.37,2.87-14.18,1-14.22,1l1-1.13C66.73,74.54,76,59.4,76,59.4S65.1,75.85,60.3,80.09c0,0-3.3-8.17,0-13.29,0,0-4.18,5-.9,14.22-1.62,1.68-4,4.56-6.44,7.79,0,0-4.18-9.32-3.09-16.18a29.37,29.37,0,0,0,2.35,17.13l.07-.09c-2,2.65-4.12,5.47-6,8l.31-.41s-3.51-6.44-3.4-12.81A27.57,27.57,0,0,0,45.81,98.3l.4-.54c-3.56,4.86-6.33,8.78-6.33,8.78l-.32,2c1.94-1.85,6.75-8.32,11.6-14.78,13.48,4.26,18.76-.93,18.76-.93-6.69,3.83-16.88.45-18.09,0C54.45,89.37,57,86,59.15,83.38A20.34,20.34,0,0,0,73.93,81.74Z"/><path class="cls-6" d="M68.49,89c-7.54,11.65-17.21,12-22,13.66-3.17,1.12-5,4-6.74,5.89a58.27,58.27,0,0,0,6.29.84c5.41,0,18.28-2.81,24.34-13.09a51.48,51.48,0,0,0,6.71-29.36L76,59.4S76,77.34,68.49,89Z"/><path class="cls-7" d="M76.25,69.29s2,20.8-13.25,32.76a29.85,29.85,0,0,1-23.31,5.82S71.29,110.12,76.25,69.29Z"/><path class="cls-8" d="M41.07,101.37s-2.41-15.74,7-26.6a28.71,28.71,0,0,1,18.61-9.39S42,70.23,41.07,101.37Z"/><path class="cls-12" d="M110.06,10.28c-.82-.06-14.73-1.89-14.73-1.89-11.56-.64-17.33-1-28.83-2-10-1.14-15-1.76-24.91-3.14-.33,8.77-.49,13.17-.82,22l1.68,1.13c-.1,2.72-.16,4.08-.26,6.8,1,1,1.46,1.45,2.43,2.4-.34,7.85-.51,11.78-.85,19.66l1.43,1.81c-.05,1.32-.07,2-.12,3.3L42.4,62.61c-.33.72-.48,1.08-.81,1.8-.11,5.85-.17,8.78-.27,14.64-.09.41-.14.61-.24,1-.19,4.43-.28,6.64-.47,11.07l2.14,2.6,2.68,1.09L44,97.07c-.75,6.89-1.12,10.35-1.86,17.3,1.92,1.5,2.89,2.25,4.82,3.72-2.27,1.09-3.4,1.65-5.65,2.77.57,2.53.87,3.78,1.45,6.29l6.08,1.19c39.23-4.66,78.11-7.42,117.83-8.31a1177.87,1177.87,0,0,1,146.45,7.41l5-1.28c-.36-9.83-.54-14.73-.9-24.51l-2.49-7.47-2-1.5,2.07-1c-.19-4-.28-6-.46-10,.75-2.23,1.12-3.35,1.88-5.59,0,0-2-12.87-3.12-12.68s3.57-1.57,3.57-1.57-.54-5.26.27-5.67a24.06,24.06,0,0,0,2.44-1.61c-.22-8.48-.33-12.72-.55-21.18l-7-.32-2.45-1.38c.11-1.93.16-2.89.27-4.83,1.09-1.46,1.63-2.2,2.72-3.69-.44-7-.65-10.51-1.09-17.48L307.2,4.09a1014.27,1014.27,0,0,1-108.41,7.1c-2,.57-3,.85-4.94,1.4-20.18.1-30.27-.09-50.42-1C130.07,11.29,123.39,11,110.06,10.28Z"/><path class="cls-13" d="M174.64,114.23c-42.35,1-83.88,4.08-125.65,9.27,0,1.93-.07,2.9-.11,4.84,39.23-4.66,78.11-7.42,117.83-8.31a1177.87,1177.87,0,0,1,146.45,7.41c.09-1.71.15-2.57.25-4.28A1250.46,1250.46,0,0,0,174.64,114.23Z"/><path class="cls-13" d="M316.23,76.13s-1.16-7.35-2.19-10.85l-.93-1.83c-5.52,5.25-8.29,7.79-13.82,12.76-.12,2.38-.19,3.58-.31,6,5,3.55,7.54,5.37,12.55,9.11,1.31.18,2,.26,3.28.45-.19-4-.28-6-.46-10C315.1,79.49,315.47,78.37,316.23,76.13Z"/><path class="cls-13" d="M314.73,94.18s0,8.08-1.62,8.91a44.72,44.72,0,0,1-6.29,2c.84,2.27,1.26,3.41,2.1,5.7,2.56,4.23,3.84,6.38,6.41,10.73,1.12,1.86,1.67,2.79,2.79,4.68-.36-9.83-.54-14.73-.9-24.51Z"/><path class="cls-13" d="M76.54,112.8c-1.81-1.41-2.72-2.11-4.53-3.54-4.91-2-7.37-3-12.27-5-5.32-3.71-8-5.61-13.29-9.52L44,97.22c-.73,6.83-1.1,10.26-1.83,17.15,1.92,1.5,2.89,2.25,4.82,3.72,11.35-1.41,17-2,28.46-3.17Z"/><path class="cls-14" d="M110.06,10.28c-.82-.06-14.73-1.89-14.73-1.89-11.56-.64-17.33-1-28.83-2-10-1.14-15-1.76-24.91-3.14-.33,8.77-.49,13.17-.82,22l2.44,1v7q27.59,2,55.28,3.23-25.76-.25-51.49-1c-.33,7.91-.5,11.86-.82,19.79l3.25.47c-1.3.36-2,.55-3.25.93v4q34.28,1.41,68.58,2.41-36.18-.18-72.36-.44c-.33.72-.48,1.08-.81,1.8-.11,5.85-.17,8.78-.27,14.64l5.4.23c-2.06.3-3.08.45-5.13.77.22,4.4.32,6.6.54,11,.76.76,1.13,1.14,1.89,1.88Q73.63,91.21,103.24,90q-28.47,1.91-56.79,4.75l-1.62,2.1c.22,7.07.33,10.61.54,17.66,2,.9,2.92,1.34,4.88,2.22,10.06-.81,15.1-1.17,25.21-1.81-9.57,1.11-14.34,1.72-23.87,3l-4.59.13-3,1.35c.22,1.49.32,2.23.54,3.72l4.32.63c39.24-4.3,78.17-6.85,117.83-7.66A1270,1270,0,0,1,313.16,123l2.17-1.49c-.11-5.77-.16-8.66-.27-14.43l-5.15-.84,4.6-.57c-.21-4.61-.32-6.91-.54-11.51q-27.3-1.66-54.69-2.62,25.59.19,51.17.87l1.08-1.1c.22-3.31.33-5,.54-8.29l-10-.55,9.77-.81c.65-2.22,1-3.33,1.62-5.57,0,0-.09-12.71-1.08-12.61-25.75,2.63-58,.89-87,1.19,30.45-.8,60.89-1.66,91.32-2.76,0,0-.54-5.26.27-5.67a24.06,24.06,0,0,0,2.44-1.61c-.22-8.48-.33-12.72-.55-21.18l-7-.32Q277,36.28,241.91,38q33.84-2.43,67.45-6.31c.11-1.93.16-2.89.27-4.83,1.09-1.46,1.63-2.2,2.72-3.69-.44-7-.65-10.51-1.09-17.48L307.2,4.09a1014.27,1014.27,0,0,1-108.41,7.1c-2,.57-3,.85-4.94,1.4-20.18.1-30.27-.09-50.42-1C130.07,11.29,123.39,11,110.06,10.28Z"/><g class="cls-15"><path class="cls-16" d="M34.35,113.73c32.11-9.41,65.54-13.44,99.52-15.61a830.61,830.61,0,0,1,128.64,5.08l-1,1.06C193.63,99.88,114.11,97.8,50,118.5,50,118.5,32.63,119.28,34.35,113.73Z"/><path class="cls-17" d="M125.64,124.81c38.27-9.44,79.78-16.18,120-15q25.88,1.2,51.73,2.74c-32.1-1-66.52-2.63-98.17,2.41a130.42,130.42,0,0,0-16,5.35C164,121.65,144.85,124.15,125.64,124.81Z"/><path class="cls-18" d="M219,123.56s25.51-4.88,41.2-4.85c20.62-.07,41.23-.18,61.85,0,.72,5,1.08,7.5,1.8,12.53C289,127.57,253.74,127.28,219,123.56Z"/><path class="cls-19" d="M159.56,70.67c-15.79.66-28.81,2.91-29,4.94s12.52,2.92,28.3,2.17S187.26,75,187.44,73,175.2,70,159.56,70.67Zm9.69,4.57c-6.64.29-12,0-11.92-.79s5.53-1.57,12.18-1.85,11.92.1,11.85.82S175.87,75,169.25,75.24Z"/><path class="cls-20" d="M323.48,73.9c-22.11-1.06-44.27-1.81-66.32-3.51-27.76-2.8-55.86-5.47-83.85-6a284,284,0,0,0-71,11.12c-9.93,3.62-8.4,8.88,7.94,9.42,27.46.37,56.57-.87,83.42-5.6.78-.16,15.15-.56,20.3-2.41a110.6,110.6,0,0,1,14.31-4c17.06.23,34.11,1.26,51,2.78,16.54,1.6,42.9,2.22,42.9,2.22C322.74,76.32,323,75.51,323.48,73.9Zm-104.73-3c-2.39.67-10.74.52-14.79.73s-1.85,2.23-.84,3.07-2.5,1.32-5.56,1.93-8.56,1.29-13.4,2.32c-2.81.6-10.72,1.26-22.93,1.51s-49.25.27-44.66-3.25,21.25-6.3,38.25-8.77c18.35-2.07,37.12-1.45,55.51-.08C219,69,221.14,70.2,218.75,70.87Z"/><path class="cls-18" d="M337.18,111.78A708.12,708.12,0,0,0,259.34,100C238.45,98.27,228.48,97,228.48,97c26.5,1.07,52.88,3.17,79.35,4.62,8.26.13,30.12,3.64,34.51,5.91S337.18,111.78,337.18,111.78Z"/><path class="cls-18" d="M60.22,131a582.85,582.85,0,0,1,81.14-16.78c21.9-2.73,32.14-4.32,32.14-4.32-28.1,2.07-55.91,5.48-83.78,8.94-8.86.79-31.7,6.16-36,8.73S60.22,131,60.22,131Z"/><path class="cls-21" d="M46,99.17c19.39-1.83,38.64-4.42,58.11-5.72,31.1-2.28,62.15-4.64,93.32-6.2-31.8-.08-63.65.33-95.39,1.85C83.21,88.92,61.16,89.2,46,99.17Z"/><path class="cls-22" d="M47.76,89.32S64.41,81.23,80.36,77s28.6-7.56,30.69-7.58-36.93,5.07-46.57,8.7-24,9.48-24,9.48S44.08,89.86,47.76,89.32Z"/><path class="cls-20" d="M323.46,52.48c-11.72-2.37-32.26-3.35-33.77-3.16s-45.59-2-45.59-2c-31.6,2.3-63.57,3.22-95,6.69-11.39,1.87-25.54,1.79-48,.2-23.62-1.55-47.29-2.64-70.93-3.94,0,0-5.58,2.68-2.59,10.26s3.32,14,9.37,16.28A517.92,517.92,0,0,1,89.53,63.62a374.88,374.88,0,0,1,52.69-3.33c22.63.42,45.28.35,67.91.33,26.53.55,53.19.81,79.61,2.86,15.93,1.66,40.91,3,40.91,3,.83-.71,1.24-1.07,2.06-1.79,1.47-3.24,2.21-4.88,3.67-8.18C336.38,56.51,335.08,54.83,323.46,52.48Zm-68.82,5.57C229.81,56.88,204.87,57,180,56.66c17.18-1.52,34.37-3.17,51.6-4.35,11.57-.65,29.12,1.3,45.89,2.11,16.6.81,49.27,7,49.27,7C302.72,60.32,278.65,59.52,254.64,58.05Z"/><path class="cls-22" d="M39,34.6c20.25,1.62,41.29,3.13,61.56,1,20.82-3.13,41.55-6.78,62.58-9,15.15-1.23,31.48-1.74,43.8-1,36.49,1,81,.72,115.33-10a73.78,73.78,0,0,1-10.38-.8c-29.32,4.54-59.31,7.84-89.21,8.24a726.85,726.85,0,0,1-97-6.68c-29.77-3.16-60.48-3-90.47-3.82-8.81-.14-6.23,3.22-6.23,3.22,25.58,1.59,51.32,2.91,77,2.67,8.36-.3,36.41-.67,28.66,3.94-16.81,6.77-37.74,8-56.3,8.28C61.94,30.64,43,29.12,43,29.12,41.41,31.29,40.59,32.39,39,34.6Z"/><path class="cls-23" d="M84.05,0c31.51,8.63,65,15.59,98.37,17.29a636.16,636.16,0,0,0,65.07-.47c22.48-2.21,44.94-4.33,67.27-7.43-26.21,3.19-52.64,5.53-79.13,6.63-5.53.14-15.44-2.8-28.08-4.17S167,5.19,167,5.19c-7-.19-10.45-.32-17.41-.65A59.94,59.94,0,0,0,164.9,8.89c7.55.88,24.34,3,25.64,3.07S206,15,206,15s2.41.75-14.93.73c-26.86-.64-56-4.89-80.85-13.19C99.75,1.66,94.51,1.16,84.05,0Z"/><path class="cls-19" d="M35.59,40.31C59.75,41.75,85,43.39,109,40.5c30.58-4.61,62.07-6.37,93-8.92,15.62-1.12,31.56-1.2,24.68.73s-32.51,1.47-21.15,4.76c18.33,4,38.86,4,57.71,3,18.75-2,40.68-5.24,55.83-14.66,3.21.86,4.82,1.3,8,2.19-18.91,7.43-39.5,14-60.62,15.82-22.77.92-47.95.63-70.05-4.32-7.69-2.59-11.34-3.45-35.14-.77-29.38,3.2-59.39,6-89.08,6.15-15.42-.26-40.45-.41-40.45-.41C33.3,42.58,34.07,41.82,35.59,40.31Z"/><path class="cls-22" d="M158.67,91.83c52.16-3.16,109.7-7.93,161.48-.58l-2.77,2c-22.94-1.73-46.2-3.34-69.26-2.8C218.31,91.12,188.48,91,158.67,91.83Z"/><path class="cls-24" d="M224.08,83.72c33.61.28,67.78,1.72,101.1,5.33,2-1.38,3.05-2.07,5.08-3.47,0,0-23.34-2.42-35.68-2C271.08,83.81,247.58,83.58,224.08,83.72Z"/></g><g class="cls-25"><path class="cls-22" d="M313.43,76.06s0-12.8-1.08-12.61c-.39.08-11.52.27-25.73.47a32.77,32.77,0,0,0,7,1.5c3.86.37,11.56,2.68,11.56,4.87s-2.31,6.34-2.75,9.25-2.86,5.81-1.14,5.92,6.1.32,1.14,2.43-34.57,3.69-36.36,3.68c17.79.18,26.67.35,44.34.81l1.08-1.1c.22-3.31.33-5,.54-8.29l-10-.55,9.77-.81C312.46,79.41,312.78,78.3,313.43,76.06Z"/><path class="cls-22" d="M300.82,9.49s.49-.84,1.08,5.65,3.88,10.35.57,12.07,3.64-.24-3.3,1.71c-16.22,4.58-35.56,6.61-53.58,8.84q32-2.37,63.77-6c.11-1.93.16-2.89.27-4.83,1.09-1.46,1.63-2.2,2.72-3.69-.44-7-.65-10.51-1.09-17.48L307.2,4.09a1014.27,1014.27,0,0,1-108.41,7.1c-2,.57-3,.85-4.94,1.4-4,0-6,0-9.95,0C223.11,13.23,261.77,12.15,300.82,9.49Z"/><path class="cls-22" d="M95.53,119.22q35.47-2.72,71.18-3.09A1270,1270,0,0,1,313.16,123l2.17-1.49c-.11-5.77-.16-8.66-.27-14.43l-5.15-.84,4.6-.57c-.21-4.61-.32-6.91-.54-11.51-17.7-1.08-26.59-1.53-44.41-2.24,8.72.76,30.64,3,32.37,4.68,2.2,2.18,4.77,12.38,3.29,14-6.74,7.46-58.82,3.25-83,3.79C180,115.31,137.69,115.91,95.53,119.22Z"/><path class="cls-22" d="M311.81,33.1c-7.84.72-11.76,1.06-19.62,1.68,5.46-.25,9.68-.33,11.31,0,6.73,1.29,8.33,1.19,7.22,4.27a40.27,40.27,0,0,0-2.19,10.25c0,2.28.12,3.77-1.1,6.41-.28.59-.27.89-.2,1a16.83,16.83,0,0,0-4.34,1.14c-7.46,2.59-6.84,4.72-14.17,5h0c11.21-.36,16.81-.54,28-.95,0,0-.54-5.26.27-5.67a24.06,24.06,0,0,0,2.44-1.61c-.22-8.48-.33-12.72-.55-21.18Z"/><path class="cls-22" d="M76.91,120.8h0Z"/></g><path class="cls-13" d="M46.45,94.75,44,92.92q28.44-1.77,57-2.83Q73.64,92,46.45,94.75Z"/><path class="cls-13" d="M42.4,62.61q35.16.27,70.33.43-33.28-1-66.55-2.4l-1.1-.29Z"/><g class="cls-26"><path class="cls-27" d="M42.13,91c.76.76,1.13,1.14,1.89,1.88q28.44-1.77,57-2.83-27.66.43-55.31,1.43a19.29,19.29,0,0,0-2-1.75c-.65-.44-1.31-8.84-1.31-8.84,1.74-.67,2.61-1,4.35-1.65-2.06.3-3.08.45-5.13.77C41.81,84.45,41.91,86.65,42.13,91Z"/><path class="cls-27" d="M307.88,33.46c3.22,1.17,4.83,1.76,8.05,3,0,0,1.48,14.23,1.15,15s-1.31,3.46-1.81,4.39-.33,4.22-.33,4.22c-7.15,1-10.73,1.52-17.91,2.48,7.87-.26,11.8-.39,19.65-.68,0,0-.54-5.26.27-5.67a24.06,24.06,0,0,0,2.44-1.61c-.22-8.48-.33-12.72-.55-21.18l-7-.32Z"/><path class="cls-27" d="M42.7,78.11s.36-13.21.66-13.36C53,60,88.69,63.14,110.85,63c.88,0-21.75-.1-41-.23H69.1l-3.52,0-22-.15L42.24,63l-.65,1.45c-.11,5.85-.17,8.78-.27,14.64l5.4.23Z"/><path class="cls-27" d="M46.15,122.07l-.49-1.22c.53-.58.78-.87,1.31-1.44,0,0,1.64-.2,3-.24s25.53-4.25,25.53-4.25c-9.57,1.11-14.34,1.72-23.87,3l-4.59.13-3,1.35c.22,1.49.32,2.23.54,3.72l4.32.63c39.24-4.3,78.17-6.85,117.83-7.66A1270,1270,0,0,1,313.16,123l2.17-1.49c-.11-5.77-.16-8.66-.27-14.43l-5.15-.84,4.6-.57c-.21-4.61-.32-6.91-.54-11.51q-27.3-1.66-54.69-2.62,26.81,1.38,53.52,3.54c.27,3.93.4,5.89.66,9.82L308,106.34c2.11.58,3.16.87,5.27,1.47,0,0,.32,10.6.16,11.38a15.07,15.07,0,0,1-1.31,2.68,1007.82,1007.82,0,0,0-101.94-6.93c-53.08-.81-106.24,1.19-158.8,7.39Z"/><path class="cls-27" d="M47.13,113.48c-.32-5.35-.49-8-.82-13.4,0,0,.66-3.42,1.48-3.94s38-4.67,49.73-5.74q-25.59,1.8-51.07,4.35l-1.62,2.1c.22,7.07.33,10.61.54,17.66,2,.9,2.92,1.34,4.88,2.22,10.06-.81,15.1-1.17,25.21-1.81-9.9.13-14.85.23-24.71.47Z"/><path class="cls-27" d="M311.53,91.28c.22-3.31.33-5,.54-8.29l-10-.55,9.77-.81c.65-2.22,1-3.33,1.62-5.57,0,0,0-12.8-1.08-12.61-.39.08-11.52.27-25.74.47h0c9.44.28,14.14.42,23.55.72.72,4.24,1.08,6.37,1.81,10.65,0,0-1.16,4.38-1.65,4.82S299,82.17,299,82.17c4.54.6,6.81.91,11.35,1.55,0,0-.33,7.23-.49,7.31-6,3.2-33.71.3-50.56.48q25.59.19,51.17.87Z"/></g></g></g></g></svg>